2Varta-Light100.ufo
<glyph name="zero" format="1">
  <advance width="1136"/>
  <unicode hex="0030"/>
  <outline>
    <contour>
      <point x="539" y="1244" type="line" smooth="yes"/>
      <point x="161" y="1244"/>
      <point x="130" y="1039"/>
      <point x="130" y="660" type="curve" smooth="yes"/>
      <point x="130" y="597" type="line" smooth="yes"/>
      <point x="130" y="244"/>
      <point x="133" y="-15"/>
      <point x="539" y="-15" type="curve" smooth="yes"/>
      <point x="597" y="-15" type="line" smooth="yes"/>
      <point x="976" y="-15"/>
      <point x="1006" y="190"/>
      <point x="1006" y="569" type="curve" smooth="yes"/>
      <point x="1006" y="631" type="line" smooth="yes"/>
      <point x="1006" y="985"/>
      <point x="1006" y="1244"/>
      <point x="600" y="1244" type="curve" smooth="yes"/>
    </contour>
    <contour>
      <point x="823" y="1110"/>
      <point x="855" y="1005"/>
      <point x="855" y="698" type="curve" smooth="yes"/>
      <point x="855" y="569" type="line" smooth="yes"/>
      <point x="855" y="255"/>
      <point x="843" y="117"/>
      <point x="607" y="117" type="curve" smooth="yes"/>
      <point x="539" y="117" type="line" smooth="yes"/>
      <point x="330" y="117"/>
      <point x="282" y="224"/>
      <point x="282" y="530" type="curve" smooth="yes"/>
      <point x="282" y="660" type="line" smooth="yes"/>
      <point x="282" y="974"/>
      <point x="294" y="1110"/>
      <point x="531" y="1110" type="curve" smooth="yes"/>
      <point x="600" y="1110" type="line" smooth="yes"/>
    </contour>
  </outline>
</glyph>
<glyph name="seven" format="1">
  <advance width="717"/>
  <unicode hex="0037"/>
  <outline>
    <contour>
      <point x="4" y="1228" type="line"/>
      <point x="4" y="1098" type="line"/>
      <point x="546" y="1098" type="line"/>
      <point x="391" y="769"/>
      <point x="243" y="414"/>
      <point x="108" y="1" type="curve"/>
      <point x="262" y="1" type="line"/>
      <point x="390" y="394"/>
      <point x="534" y="773"/>
      <point x="705" y="1115" type="curve"/>
      <point x="705" y="1228" type="line"/>
    </contour>
  </outline>
</glyph>
<glyph name="ii-deva" format="1">
  <advance width="980"/>
  <unicode hex="0908"/>
  <outline>
    <component base="i-deva"/>
    <component base="reph-deva" xOffset="465"/>
    <contour>
      <point x="344" y="849" type="move" name="top"/>
    </contour>
    <contour>
      <point x="344" y="20" type="move" name="bottom"/>
    </contour>
  </outline>
</glyph>
<glyph name="rVocalic-deva" format="1">
  <advance width="1482"/>
  <unicode hex="090B"/>
  <outline>
    <contour>
      <point x="-12" y="1247" type="line"/>
      <point x="-12" y="1143" type="line"/>
      <point x="1492" y="1143" type="line"/>
      <point x="1492" y="1247" type="line"/>
    </contour>
    <contour>
      <point x="936" y="959" type="line"/>
      <point x="1054" y="796" type="line"/>
      <point x="1058" y="857" type="line"/>
      <point x="774" y="639" type="line"/>
      <point x="813" y="537" type="line"/>
      <point x="1130" y="783" type="line" smooth="yes"/>
      <point x="1191" y="826"/>
      <point x="1205" y="851"/>
      <point x="1205" y="888" type="curve" smooth="yes"/>
      <point x="1205" y="969"/>
      <point x="1114" y="1002"/>
      <point x="1015" y="1026" type="curve"/>
    </contour>
    <contour>
      <point x="1164" y="122" type="line"/>
      <point x="1300" y="197"/>
      <point x="1360" y="295"/>
      <point x="1360" y="408" type="curve" smooth="yes"/>
      <point x="1360" y="537"/>
      <point x="1279" y="676"/>
      <point x="1107" y="864" type="curve"/>
      <point x="1045" y="805" type="line"/>
      <point x="1170" y="640"/>
      <point x="1238" y="528"/>
      <point x="1238" y="430" type="curve" smooth="yes"/>
      <point x="1238" y="356"/>
      <point x="1194" y="284"/>
      <point x="1092" y="222" type="curve"/>
    </contour>
    <contour>
      <point x="155" y="203" type="line"/>
      <point x="233" y="109" type="line"/>
      <point x="780" y="534" type="line"/>
      <point x="749" y="634" type="line"/>
    </contour>
    <contour>
      <point x="197" y="958"/>
      <point x="119" y="908"/>
      <point x="56" y="856" type="curve"/>
      <point x="122" y="755" type="line"/>
      <point x="185" y="803"/>
      <point x="256" y="844"/>
      <point x="316" y="843" type="curve" smooth="yes"/>
      <point x="438" y="842"/>
      <point x="530" y="750"/>
      <point x="708" y="552" type="curve"/>
      <point x="780" y="603" type="line"/>
      <point x="544" y="898"/>
      <point x="435" y="958"/>
      <point x="311" y="958" type="curve" smooth="yes"/>
    </contour>
    <contour>
      <point x="706" y="1160" type="line"/>
      <point x="706" y="-1" type="line"/>
      <point x="832" y="-1" type="line"/>
      <point x="832" y="1160" type="line"/>
    </contour>
    <contour>
      <point x="742" y="1168" type="move" name="top"/>
    </contour>
    <contour>
      <point x="742" y="28" type="move" name="bottom"/>
    </contour>
  </outline>
</glyph>
<glyph name="lVocalic-deva" format="1">
  <advance width="1314"/>
  <unicode hex="090C"/>
  <outline>
    <contour>
      <point x="762" y="917"/>
      <point x="610" y="799"/>
      <point x="610" y="580" type="curve" smooth="yes"/>
      <point x="610" y="549"/>
      <point x="613" y="515"/>
      <point x="622" y="480" type="curve"/>
      <point x="739" y="496" type="line"/>
      <point x="736" y="519"/>
      <point x="734" y="540"/>
      <point x="734" y="562" type="curve" smooth="yes"/>
      <point x="734" y="713"/>
      <point x="816" y="799"/>
      <point x="930" y="799" type="curve" smooth="yes"/>
      <point x="1052" y="799"/>
      <point x="1116" y="714"/>
      <point x="1116" y="560" type="curve" smooth="yes"/>
      <point x="1116" y="482"/>
      <point x="1107" y="398"/>
      <point x="1057" y="277" type="curve"/>
      <point x="1111" y="333" type="line"/>
      <point x="904" y="274"/>
      <point x="812" y="168"/>
      <point x="812" y="53" type="curve"/>
      <point x="812" y="-49"/>
      <point x="871" y="-191"/>
      <point x="1083" y="-191" type="curve" smooth="yes"/>
      <point x="1193" y="-191"/>
      <point x="1303" y="-150"/>
      <point x="1379" y="-93" type="curve"/>
      <point x="1330" y="-3" type="line"/>
      <point x="1263" y="-55"/>
      <point x="1168" y="-88"/>
      <point x="1084" y="-88" type="curve" smooth="yes"/>
      <point x="947" y="-88"/>
      <point x="931" y="-0"/>
      <point x="931" y="55" type="curve" smooth="yes"/>
      <point x="931" y="143"/>
      <point x="1013" y="202"/>
      <point x="1172" y="253" type="curve"/>
      <point x="1224" y="386"/>
      <point x="1238" y="485"/>
      <point x="1238" y="550" type="curve" smooth="yes"/>
      <point x="1238" y="789"/>
      <point x="1128" y="917"/>
      <point x="925" y="917" type="curve" smooth="yes"/>
    </contour>
    <contour>
      <point x="-12" y="1247" type="line"/>
      <point x="-12" y="1143" type="line"/>
      <point x="1327" y="1143" type="line"/>
      <point x="1327" y="1247" type="line"/>
    </contour>
    <contour>
      <point x="925" y="1191" type="line"/>
      <point x="925" y="868" type="line"/>
      <point x="1052" y="868" type="line"/>
      <point x="1052" y="1191" type="line"/>
    </contour>
    <contour>
      <point x="184" y="920"/>
      <point x="74" y="809"/>
      <point x="74" y="608" type="curve" smooth="yes"/>
      <point x="74" y="352"/>
      <point x="235" y="131"/>
      <point x="316" y="31" type="curve"/>
      <point x="412" y="107" type="line"/>
      <point x="315" y="231"/>
      <point x="200" y="406"/>
      <point x="200" y="592" type="curve" smooth="yes"/>
      <point x="200" y="745"/>
      <point x="286" y="801"/>
      <point x="390" y="801" type="curve" smooth="yes"/>
      <point x="511" y="801"/>
      <point x="584" y="721"/>
      <point x="642" y="591" type="curve"/>
      <point x="679" y="687" type="line"/>
      <point x="605" y="857"/>
      <point x="503" y="920"/>
      <point x="367" y="920" type="curve" smooth="yes"/>
    </contour>
    <contour>
      <point x="742" y="1168" type="move" name="top"/>
    </contour>
    <contour>
      <point x="692" y="-4" type="move" name="bottom"/>
    </contour>
  </outline>
</glyph>
<glyph name="ai-deva" format="1">
  <advance width="1020"/>
  <unicode hex="0910"/>
  <outline>
    <component base="e-deva"/>
    <component base="eMatra-deva" xOffset="538"/>
    <contour>
      <point x="365" y="849" type="move" name="top"/>
    </contour>
    <contour>
      <point x="365" y="20" type="move" name="bottom"/>
    </contour>
  </outline>
</glyph>
<glyph name="avagraha-deva" format="1">
  <advance width="746"/>
  <unicode hex="093D"/>
  <outline>
    <contour>
      <point x="353" y="1247" type="line" smooth="yes"/>
      <point x="160" y="1247"/>
      <point x="53" y="1155"/>
      <point x="53" y="978" type="curve" smooth="yes"/>
      <point x="53" y="809"/>
      <point x="177" y="717"/>
      <point x="328" y="611" type="curve" smooth="yes"/>
      <point x="507" y="484"/>
      <point x="639" y="411"/>
      <point x="638" y="261" type="curve" smooth="yes"/>
      <point x="638" y="133"/>
      <point x="566" y="44"/>
      <point x="392" y="44" type="curve" smooth="yes"/>
      <point x="254" y="44"/>
      <point x="149" y="93"/>
      <point x="34" y="157" type="curve"/>
      <point x="-18" y="72" type="line"/>
      <point x="90" y="-17"/>
      <point x="244" y="-67"/>
      <point x="391" y="-67" type="curve" smooth="yes"/>
      <point x="666" y="-67"/>
      <point x="762" y="109"/>
      <point x="762" y="268" type="curve" smooth="yes"/>
      <point x="762" y="433"/>
      <point x="648" y="532"/>
      <point x="469" y="655" type="curve" smooth="yes"/>
      <point x="245" y="809"/>
      <point x="179" y="864"/>
      <point x="176" y="972" type="curve" smooth="yes"/>
      <point x="172" y="1083"/>
      <point x="243" y="1143"/>
      <point x="366" y="1143" type="curve" smooth="yes"/>
      <point x="748" y="1143" type="line"/>
      <point x="748" y="1247" type="line"/>
    </contour>
  </outline>
</glyph>
<glyph name="qa-deva" format="1">
  <advance width="1491"/>
  <unicode hex="0958"/>
  <outline>
    <component base="ka-deva"/>
    <component base="nukta-deva" xOffset="60" yOffset="16"/>
    <contour>
      <point x="567" y="849" type="move" name="top"/>
    </contour>
    <contour>
      <point x="569" y="20" type="move" name="bottom"/>
    </contour>
    <contour>
      <point x="782" y="1168" type="move" name="topcandrabindu"/>
    </contour>
  </outline>
</glyph>
<glyph name="khha-deva" format="1">
  <advance width="1589"/>
  <unicode hex="0959"/>
  <outline>
    <component base="kha-deva"/>
    <component base="nukta-deva" xOffset="-100" yOffset="16"/>
    <contour>
      <point x="947" y="849" type="move" name="top"/>
    </contour>
    <contour>
      <point x="948" y="20" type="move" name="bottom"/>
    </contour>
    <contour>
      <point x="622" y="849" type="move" name="topcandrabindu"/>
    </contour>
  </outline>
</glyph>
<glyph name="ghha-deva" format="1">
  <advance width="1137"/>
  <unicode hex="095A"/>
  <outline>
    <component base="ga-deva"/>
    <component base="nukta-deva" xOffset="43" yOffset="99"/>
    <contour>
      <point x="625" y="849" type="move" name="top"/>
    </contour>
    <contour>
      <point x="631" y="20" type="move" name="bottom"/>
    </contour>
    <contour>
      <point x="434" y="849" type="move" name="topcandrabindu"/>
    </contour>
  </outline>
</glyph>
<glyph name="fa-deva" format="1">
  <advance width="1565"/>
  <unicode hex="095E"/>
  <outline>
    <component base="pha-deva"/>
    <component base="nukta-deva" xOffset="93" yOffset="60"/>
    <contour>
      <point x="595" y="849" type="move" name="top"/>
    </contour>
    <contour>
      <point x="598" y="20" type="move" name="bottom"/>
    </contour>
  </outline>
</glyph>
<glyph name="rrVocalic-deva" format="1">
  <advance width="1508"/>
  <unicode hex="0960"/>
  <outline>
    <contour>
      <point x="976" y="1010" type="line"/>
      <point x="1080" y="837" type="line"/>
      <point x="1092" y="903" type="line"/>
      <point x="760" y="639" type="line"/>
      <point x="799" y="538" type="line"/>
      <point x="1164" y="829" type="line" smooth="yes"/>
      <point x="1228" y="868"/>
      <point x="1239" y="897"/>
      <point x="1239" y="933" type="curve"/>
      <point x="1239" y="1015"/>
      <point x="1148" y="1047"/>
      <point x="1049" y="1072" type="curve"/>
    </contour>
    <contour>
      <point x="-12" y="1247" type="line"/>
      <point x="-12" y="1143" type="line"/>
      <point x="1521" y="1143" type="line"/>
      <point x="1521" y="1247" type="line"/>
    </contour>
    <contour>
      <point x="183" y="958"/>
      <point x="105" y="908"/>
      <point x="42" y="856" type="curve"/>
      <point x="108" y="755" type="line"/>
      <point x="171" y="803"/>
      <point x="242" y="844"/>
      <point x="302" y="843" type="curve" smooth="yes"/>
      <point x="424" y="842"/>
      <point x="516" y="750"/>
      <point x="694" y="552" type="curve"/>
      <point x="766" y="603" type="line"/>
      <point x="530" y="898"/>
      <point x="421" y="958"/>
      <point x="297" y="958" type="curve" smooth="yes"/>
    </contour>
    <contour>
      <point x="692" y="1160" type="line"/>
      <point x="692" y="-1" type="line"/>
      <point x="818" y="-1" type="line"/>
      <point x="818" y="1160" type="line"/>
    </contour>
    <contour>
      <point x="141" y="203" type="line"/>
      <point x="219" y="109" type="line"/>
      <point x="766" y="534" type="line"/>
      <point x="735" y="634" type="line"/>
    </contour>
    <contour>
      <point x="1084" y="839" type="line"/>
      <point x="1285" y="497" type="line"/>
      <point x="1296" y="539" type="line"/>
      <point x="1141" y="532"/>
      <point x="977" y="464"/>
      <point x="978" y="314" type="curve" smooth="yes"/>
      <point x="979" y="224"/>
      <point x="1015" y="111"/>
      <point x="1264" y="87" type="curve"/>
      <point x="1315" y="140" type="line"/>
      <point x="1157" y="162"/>
      <point x="1103" y="224"/>
      <point x="1103" y="301" type="curve" smooth="yes"/>
      <point x="1103" y="390"/>
      <point x="1192" y="441"/>
      <point x="1358" y="445" type="curve"/>
      <point x="1384" y="528" type="line"/>
      <point x="1176" y="883" type="line"/>
    </contour>
    <contour>
      <point x="1121" y="149"/>
      <point x="1053" y="31"/>
      <point x="1053" y="-74" type="curve" smooth="yes"/>
      <point x="1053" y="-208"/>
      <point x="1150" y="-309"/>
      <point x="1322" y="-308" type="curve" smooth="yes"/>
      <point x="1435" y="-307"/>
      <point x="1544" y="-268"/>
      <point x="1619" y="-210" type="curve"/>
      <point x="1570" y="-120" type="line"/>
      <point x="1503" y="-172"/>
      <point x="1408" y="-205"/>
      <point x="1324" y="-205" type="curve" smooth="yes"/>
      <point x="1220" y="-206"/>
      <point x="1172" y="-161"/>
      <point x="1172" y="-79" type="curve" smooth="yes"/>
      <point x="1172" y="9"/>
      <point x="1240" y="56"/>
      <point x="1412" y="74" type="curve"/>
      <point x="1401" y="168" type="line"/>
    </contour>
    <contour>
      <point x="750" y="1168" type="move" name="top"/>
    </contour>
    <contour>
      <point x="750" y="28" type="move" name="bottom"/>
    </contour>
  </outline>
</glyph>
<glyph name="llVocalic-deva" format="1">
  <advance width="1313"/>
  <unicode hex="0961"/>
  <outline>
    <contour>
      <point x="968" y="139"/>
      <point x="900" y="21"/>
      <point x="900" y="-79" type="curve" smooth="yes"/>
      <point x="900" y="-211"/>
      <point x="997" y="-312"/>
      <point x="1169" y="-311" type="curve" smooth="yes"/>
      <point x="1282" y="-310"/>
      <point x="1391" y="-271"/>
      <point x="1466" y="-213" type="curve"/>
      <point x="1417" y="-123" type="line"/>
      <point x="1350" y="-175"/>
      <point x="1255" y="-208"/>
      <point x="1171" y="-208" type="curve" smooth="yes"/>
      <point x="1067" y="-209"/>
      <point x="1019" y="-164"/>
      <point x="1019" y="-83" type="curve" smooth="yes"/>
      <point x="1019" y="-1"/>
      <point x="1087" y="46"/>
      <point x="1259" y="64" type="curve"/>
      <point x="1248" y="158" type="line"/>
    </contour>
    <contour>
      <point x="-12" y="1247" type="line"/>
      <point x="-12" y="1143" type="line"/>
      <point x="1326" y="1143" type="line"/>
      <point x="1326" y="1247" type="line"/>
    </contour>
    <contour>
      <point x="925" y="1191" type="line"/>
      <point x="925" y="868" type="line"/>
      <point x="1052" y="868" type="line"/>
      <point x="1052" y="1191" type="line"/>
    </contour>
    <contour>
      <point x="762" y="917"/>
      <point x="610" y="799"/>
      <point x="610" y="580" type="curve" smooth="yes"/>
      <point x="610" y="549"/>
      <point x="613" y="515"/>
      <point x="622" y="480" type="curve"/>
      <point x="739" y="496" type="line"/>
      <point x="736" y="519"/>
      <point x="734" y="540"/>
      <point x="734" y="562" type="curve" smooth="yes"/>
      <point x="734" y="713"/>
      <point x="816" y="799"/>
      <point x="930" y="799" type="curve" smooth="yes"/>
      <point x="1052" y="799"/>
      <point x="1116" y="714"/>
      <point x="1116" y="560" type="curve" smooth="yes"/>
      <point x="1116" y="535"/>
      <point x="1115" y="513"/>
      <point x="1112" y="488" type="curve"/>
      <point x="1145" y="521" type="line"/>
      <point x="989" y="518"/>
      <point x="824" y="448"/>
      <point x="826" y="297" type="curve" smooth="yes"/>
      <point x="826" y="207"/>
      <point x="877" y="93"/>
      <point x="1126" y="70" type="curve"/>
      <point x="1173" y="122" type="line"/>
      <point x="1016" y="145"/>
      <point x="950" y="206"/>
      <point x="950" y="284" type="curve" smooth="yes"/>
      <point x="950" y="376"/>
      <point x="1035" y="423"/>
      <point x="1222" y="428" type="curve"/>
      <point x="1231" y="479"/>
      <point x="1235" y="533"/>
      <point x="1235" y="565" type="curve" smooth="yes"/>
      <point x="1235" y="789"/>
      <point x="1128" y="917"/>
      <point x="925" y="917" type="curve" smooth="yes"/>
    </contour>
    <contour>
      <point x="184" y="920"/>
      <point x="74" y="809"/>
      <point x="74" y="608" type="curve" smooth="yes"/>
      <point x="74" y="352"/>
      <point x="235" y="131"/>
      <point x="316" y="31" type="curve"/>
      <point x="412" y="107" type="line"/>
      <point x="315" y="231"/>
      <point x="200" y="406"/>
      <point x="200" y="592" type="curve" smooth="yes"/>
      <point x="200" y="745"/>
      <point x="286" y="801"/>
      <point x="390" y="801" type="curve" smooth="yes"/>
      <point x="511" y="801"/>
      <point x="584" y="721"/>
      <point x="642" y="591" type="curve"/>
      <point x="679" y="687" type="line"/>
      <point x="605" y="857"/>
      <point x="503" y="920"/>
      <point x="367" y="920" type="curve" smooth="yes"/>
    </contour>
    <contour>
      <point x="742" y="1168" type="move" name="top"/>
    </contour>
    <contour>
      <point x="680" y="29" type="move" name="bottom"/>
    </contour>
  </outline>
</glyph>
<glyph name="danda-deva" format="1">
  <advance width="600"/>
  <unicode hex="0964"/>
  <outline>
    <contour>
      <point x="255" y="1247" type="line"/>
      <point x="255" y="0" type="line"/>
      <point x="381" y="0" type="line"/>
      <point x="381" y="1247" type="line"/>
    </contour>
  </outline>
</glyph>
<glyph name="dbldanda-deva" format="1">
  <advance width="685"/>
  <unicode hex="0965"/>
  <outline>
    <contour>
      <point x="123" y="1247" type="line"/>
      <point x="123" y="0" type="line"/>
      <point x="249" y="0" type="line"/>
      <point x="249" y="1247" type="line"/>
    </contour>
    <contour>
      <point x="383" y="1247" type="line"/>
      <point x="383" y="0" type="line"/>
      <point x="509" y="0" type="line"/>
      <point x="509" y="1247" type="line"/>
    </contour>
  </outline>
</glyph>
<glyph name="aw-deva" format="1">
  <advance width="1954"/>
  <unicode hex="0975"/>
  <outline>
    <contour>
      <point x="980" y="1667"/>
      <point x="975" y="1632"/>
      <point x="975" y="1607" type="curve" smooth="yes"/>
      <point x="975" y="1515"/>
      <point x="1038" y="1437"/>
      <point x="1202" y="1411" type="curve" smooth="yes"/>
      <point x="1420" y="1377" type="line" smooth="yes"/>
      <point x="1573" y="1353"/>
      <point x="1647" y="1341"/>
      <point x="1647" y="1216" type="curve" smooth="yes"/>
      <point x="1647" y="1189"/>
      <point x="1643" y="1162"/>
      <point x="1632" y="1128" type="curve"/>
      <point x="1687" y="1105" type="line"/>
      <point x="1716" y="1165"/>
      <point x="1729" y="1216"/>
      <point x="1729" y="1265" type="curve" smooth="yes"/>
      <point x="1729" y="1408"/>
      <point x="1637" y="1450"/>
      <point x="1455" y="1476" type="curve" smooth="yes"/>
      <point x="1250" y="1507" type="line" smooth="yes"/>
      <point x="1099" y="1529"/>
      <point x="1059" y="1584"/>
      <point x="1059" y="1646" type="curve" smooth="yes"/>
      <point x="1059" y="1659"/>
      <point x="1060" y="1673"/>
      <point x="1064" y="1687" type="curve"/>
      <point x="993" y="1701" type="line"/>
    </contour>
    <contour>
      <point x="1010" y="1719"/>
      <point x="1004" y="1691"/>
      <point x="1004" y="1664" type="curve" smooth="yes"/>
      <point x="1004" y="1566"/>
      <point x="1078" y="1485"/>
      <point x="1238" y="1455" type="curve" smooth="yes"/>
      <point x="1444" y="1418" type="line" smooth="yes"/>
      <point x="1607" y="1387"/>
      <point x="1645" y="1350"/>
      <point x="1645" y="1275" type="curve" smooth="yes"/>
      <point x="1645" y="1254"/>
      <point x="1644" y="1229"/>
      <point x="1642" y="1203" type="curve"/>
      <point x="1696" y="1189" type="line"/>
      <point x="1708" y="1234"/>
      <point x="1716" y="1276"/>
      <point x="1716" y="1313" type="curve" smooth="yes"/>
      <point x="1716" y="1420"/>
      <point x="1642" y="1487"/>
      <point x="1455" y="1521" type="curve" smooth="yes"/>
      <point x="1282" y="1551" type="line" smooth="yes"/>
      <point x="1126" y="1580"/>
      <point x="1087" y="1631"/>
      <point x="1086" y="1690" type="curve" smooth="yes"/>
      <point x="1086" y="1706"/>
      <point x="1088" y="1719"/>
      <point x="1091" y="1735" type="curve"/>
      <point x="1021" y="1747" type="line"/>
    </contour>
    <component base="aa-deva"/>
  </outline>
</glyph>
<glyph name="aiMatra_anusvara-deva" format="1">
  <advance width="726"/>
  <outline>
    <component base="anusvara-deva" xOffset="561" yOffset="-32"/>
    <component base="aiMatra-deva" xOffset="464"/>
    <contour>
      <point x="738" y="1168" type="move" name="_top"/>
    </contour>
  </outline>
</glyph>
<glyph name="d_dh_r_ya-deva" format="1">
  <advance width="2309"/>
  <outline>
    <contour>
      <point x="876" y="1178" type="line"/>
      <point x="876" y="865" type="line"/>
      <point x="935" y="885" type="line"/>
      <point x="877" y="896"/>
      <point x="821" y="901"/>
      <point x="771" y="901" type="curve" smooth="yes"/>
      <point x="428" y="901"/>
      <point x="307" y="749"/>
      <point x="307" y="506" type="curve" smooth="yes"/>
      <point x="307" y="260"/>
      <point x="462" y="97"/>
      <point x="754" y="97" type="curve" smooth="yes"/>
      <point x="868" y="97"/>
      <point x="964" y="121"/>
      <point x="1039" y="172" type="curve" smooth="yes"/>
      <point x="1105" y="215"/>
      <point x="1134" y="272"/>
      <point x="1134" y="324" type="curve" smooth="yes"/>
      <point x="1134" y="399"/>
      <point x="1066" y="464"/>
      <point x="961" y="496" type="curve"/>
      <point x="884" y="426" type="line"/>
      <point x="980" y="239" type="line"/>
      <point x="1006" y="281" type="line"/>
      <point x="911" y="222"/>
      <point x="831" y="206"/>
      <point x="747" y="206" type="curve" smooth="yes"/>
      <point x="565" y="206"/>
      <point x="440" y="281"/>
      <point x="440" y="497" type="curve" smooth="yes"/>
      <point x="440" y="706"/>
      <point x="539" y="788"/>
      <point x="779" y="788" type="curve" smooth="yes"/>
      <point x="880" y="788"/>
      <point x="976" y="788"/>
      <point x="1003" y="788" type="curve"/>
      <point x="1003" y="1178" type="line"/>
    </contour>
    <contour>
      <point x="160" y="457"/>
      <point x="36" y="343"/>
      <point x="34" y="199" type="curve" smooth="yes"/>
      <point x="32" y="68"/>
      <point x="114" y="-20"/>
      <point x="263" y="-49" type="curve" smooth="yes"/>
      <point x="307" y="-58"/>
      <point x="358" y="-60"/>
      <point x="416" y="-58" type="curve"/>
      <point x="455" y="23" type="line"/>
      <point x="391" y="25"/>
      <point x="333" y="31"/>
      <point x="286" y="45" type="curve" smooth="yes"/>
      <point x="206" y="70"/>
      <point x="158" y="116"/>
      <point x="157" y="184" type="curve" smooth="yes"/>
      <point x="155" y="283"/>
      <point x="230" y="349"/>
      <point x="354" y="382" type="curve"/>
      <point x="336" y="485" type="line"/>
    </contour>
    <contour>
      <point x="958" y="-17"/>
      <point x="861" y="-267"/>
      <point x="640" y="-267" type="curve" smooth="yes"/>
      <point x="550" y="-267"/>
      <point x="486" y="-211"/>
      <point x="486" y="-125" type="curve" smooth="yes"/>
      <point x="486" y="6"/>
      <point x="610" y="66"/>
      <point x="694" y="117" type="curve"/>
      <point x="642" y="195" type="line"/>
      <point x="574" y="157"/>
      <point x="363" y="73"/>
      <point x="363" y="-122" type="curve" smooth="yes"/>
      <point x="363" y="-275"/>
      <point x="478" y="-373"/>
      <point x="647" y="-373" type="curve" smooth="yes"/>
      <point x="960" y="-373"/>
      <point x="1068" y="-44"/>
      <point x="1067" y="206" type="curve"/>
      <point x="987" y="252" type="line"/>
    </contour>
    <contour>
      <point x="860" y="-415" type="line"/>
      <point x="931" y="-503" type="line"/>
      <point x="1300" y="-210" type="line"/>
      <point x="1256" y="-124" type="line"/>
    </contour>
    <contour>
      <point x="1002" y="212" type="line"/>
      <point x="1310" y="-319" type="line"/>
      <point x="1406" y="-257" type="line"/>
      <point x="1073" y="247" type="line"/>
    </contour>
    <contour>
      <point x="953" y="893" type="line"/>
      <point x="938" y="788" type="line"/>
      <point x="1357" y="788" type="line" smooth="yes"/>
      <point x="1454" y="788"/>
      <point x="1496" y="757"/>
      <point x="1496" y="705" type="curve" smooth="yes"/>
      <point x="1496" y="636"/>
      <point x="1422" y="566"/>
      <point x="1234" y="514" type="curve"/>
      <point x="1292" y="249"/>
      <point x="1440" y="109"/>
      <point x="1661" y="109" type="curve" smooth="yes"/>
      <point x="1788" y="109"/>
      <point x="1900" y="156"/>
      <point x="1991" y="250" type="curve"/>
      <point x="1995" y="411" type="line"/>
      <point x="1913" y="274"/>
      <point x="1765" y="224"/>
      <point x="1653" y="224" type="curve" smooth="yes"/>
      <point x="1506" y="224"/>
      <point x="1394" y="312"/>
      <point x="1357" y="480" type="curve"/>
      <point x="1336" y="432" type="line"/>
      <point x="1433" y="454"/>
      <point x="1614" y="529"/>
      <point x="1614" y="710" type="curve" smooth="yes"/>
      <point x="1614" y="841"/>
      <point x="1517" y="894"/>
      <point x="1339" y="894" type="curve" smooth="yes"/>
    </contour>
    <contour>
      <point x="-12" y="1247" type="line"/>
      <point x="-12" y="1143" type="line"/>
      <point x="2322" y="1143" type="line"/>
      <point x="2322" y="1247" type="line"/>
    </contour>
    <contour>
      <point x="1970" y="1170" type="line"/>
      <point x="1970" y="0" type="line"/>
      <point x="2096" y="0" type="line"/>
      <point x="2096" y="1170" type="line"/>
    </contour>
    <contour>
      <point x="2033" y="1168" type="move" name="top"/>
    </contour>
    <contour>
      <point x="2033" y="28" type="move" name="bottom"/>
    </contour>
  </outline>
</glyph>
<glyph name="d_gha-deva" format="1">
  <advance width="1286"/>
  <outline>
    <contour>
      <point x="-12" y="1247" type="line"/>
      <point x="-12" y="1143" type="line"/>
      <point x="1304" y="1143" type="line"/>
      <point x="1304" y="1247" type="line"/>
    </contour>
    <contour>
      <point x="917" y="1178" type="line"/>
      <point x="917" y="865" type="line"/>
      <point x="976" y="885" type="line"/>
      <point x="918" y="896"/>
      <point x="862" y="901"/>
      <point x="812" y="901" type="curve" smooth="yes"/>
      <point x="469" y="901"/>
      <point x="348" y="749"/>
      <point x="348" y="506" type="curve" smooth="yes"/>
      <point x="348" y="260"/>
      <point x="503" y="97"/>
      <point x="795" y="97" type="curve" smooth="yes"/>
      <point x="909" y="97"/>
      <point x="1005" y="121"/>
      <point x="1080" y="172" type="curve" smooth="yes"/>
      <point x="1146" y="215"/>
      <point x="1175" y="272"/>
      <point x="1175" y="324" type="curve" smooth="yes"/>
      <point x="1175" y="399"/>
      <point x="1107" y="464"/>
      <point x="1002" y="496" type="curve"/>
      <point x="925" y="426" type="line"/>
      <point x="1021" y="239" type="line"/>
      <point x="1047" y="281" type="line"/>
      <point x="952" y="222"/>
      <point x="872" y="206"/>
      <point x="788" y="206" type="curve" smooth="yes"/>
      <point x="606" y="206"/>
      <point x="481" y="281"/>
      <point x="481" y="497" type="curve" smooth="yes"/>
      <point x="481" y="706"/>
      <point x="580" y="788"/>
      <point x="820" y="788" type="curve" smooth="yes"/>
      <point x="921" y="788"/>
      <point x="1017" y="781"/>
      <point x="1044" y="780" type="curve"/>
      <point x="1044" y="1178" type="line"/>
    </contour>
    <contour>
      <point x="201" y="457"/>
      <point x="77" y="343"/>
      <point x="75" y="199" type="curve" smooth="yes"/>
      <point x="73" y="68"/>
      <point x="155" y="-20"/>
      <point x="304" y="-49" type="curve" smooth="yes"/>
      <point x="348" y="-58"/>
      <point x="399" y="-60"/>
      <point x="457" y="-58" type="curve"/>
      <point x="496" y="23" type="line"/>
      <point x="432" y="25"/>
      <point x="374" y="31"/>
      <point x="327" y="45" type="curve" smooth="yes"/>
      <point x="247" y="70"/>
      <point x="199" y="116"/>
      <point x="198" y="184" type="curve" smooth="yes"/>
      <point x="196" y="283"/>
      <point x="271" y="349"/>
      <point x="395" y="382" type="curve"/>
      <point x="377" y="485" type="line"/>
    </contour>
    <contour>
      <point x="998" y="-17"/>
      <point x="901" y="-267"/>
      <point x="680" y="-267" type="curve" smooth="yes"/>
      <point x="590" y="-267"/>
      <point x="526" y="-211"/>
      <point x="526" y="-125" type="curve" smooth="yes"/>
      <point x="526" y="6"/>
      <point x="650" y="66"/>
      <point x="734" y="117" type="curve"/>
      <point x="682" y="195" type="line"/>
      <point x="614" y="157"/>
      <point x="403" y="73"/>
      <point x="403" y="-122" type="curve" smooth="yes"/>
      <point x="403" y="-275"/>
      <point x="518" y="-373"/>
      <point x="687" y="-373" type="curve" smooth="yes"/>
      <point x="1000" y="-373"/>
      <point x="1108" y="-44"/>
      <point x="1107" y="206" type="curve"/>
      <point x="1027" y="252" type="line"/>
    </contour>
    <contour>
      <point x="1043" y="212" type="line"/>
      <point x="1217" y="-106" type="line"/>
      <point x="1313" y="-44" type="line"/>
      <point x="1114" y="247" type="line"/>
    </contour>
    <contour>
      <point x="980" y="1168" type="move" name="top"/>
    </contour>
    <contour>
      <point x="752" y="-315" type="move" name="bottom"/>
    </contour>
  </outline>
</glyph>
<glyph name="dd_ya-deva" format="1">
  <advance width="2157"/>
  <outline>
    <contour>
      <point x="985" y="942"/>
      <point x="825" y="633"/>
      <point x="788" y="463" type="curve"/>
      <point x="871" y="377" type="line"/>
      <point x="894" y="545"/>
      <point x="1045" y="840"/>
      <point x="1224" y="840" type="curve" smooth="yes"/>
      <point x="1310" y="840"/>
      <point x="1343" y="808"/>
      <point x="1343" y="755" type="curve" smooth="yes"/>
      <point x="1343" y="686"/>
      <point x="1269" y="616"/>
      <point x="1081" y="564" type="curve"/>
      <point x="1139" y="299"/>
      <point x="1287" y="159"/>
      <point x="1508" y="159" type="curve" smooth="yes"/>
      <point x="1636" y="159"/>
      <point x="1747" y="206"/>
      <point x="1838" y="300" type="curve"/>
      <point x="1842" y="461" type="line"/>
      <point x="1760" y="324"/>
      <point x="1612" y="274"/>
      <point x="1500" y="274" type="curve" smooth="yes"/>
      <point x="1353" y="274"/>
      <point x="1241" y="362"/>
      <point x="1204" y="530" type="curve"/>
      <point x="1183" y="482" type="line"/>
      <point x="1270" y="507"/>
      <point x="1461" y="582"/>
      <point x="1461" y="762" type="curve" smooth="yes"/>
      <point x="1461" y="892"/>
      <point x="1362" y="942"/>
      <point x="1241" y="942" type="curve" smooth="yes"/>
    </contour>
    <contour>
      <point x="1817" y="1170" type="line"/>
      <point x="1817" y="0" type="line"/>
      <point x="1943" y="0" type="line"/>
      <point x="1943" y="1170" type="line"/>
    </contour>
    <contour>
      <point x="949" y="1247" type="line"/>
      <point x="949" y="1143" type="line"/>
      <point x="2169" y="1143" type="line"/>
      <point x="2169" y="1247" type="line"/>
    </contour>
    <component base="dda-deva" xOffset="12"/>
    <contour>
      <point x="1880" y="1168" type="move" name="top"/>
    </contour>
    <contour>
      <point x="1880" y="28" type="move" name="bottom"/>
    </contour>
    <contour>
      <point x="1406" y="1168" type="move" name="topcandrabindu"/>
    </contour>
  </outline>
</glyph>
<glyph name="ddh-deva" format="1">
  <advance width="1069"/>
  <outline>
    <component base="ddha-deva"/>
    <component base="halant-deva" xOffset="472" yOffset="68"/>
    <contour>
      <point x="387" y="849" type="move" name="top"/>
    </contour>
    <contour>
      <point x="387" y="20" type="move" name="bottom"/>
    </contour>
  </outline>
</glyph>
<glyph name="eMatra_anusvara-deva" format="1">
  <advance width="540"/>
  <outline>
    <component base="anusvara-deva" xOffset="56" yOffset="47"/>
    <component base="eMatra-deva" xOffset="-9"/>
    <contour>
      <point x="270" y="1168" type="move" name="_top"/>
    </contour>
  </outline>
</glyph>
<glyph name="f-deva" format="1">
  <advance width="1233"/>
  <outline>
    <component base="ph-deva"/>
    <component base="nukta-deva" xOffset="222" yOffset="65"/>
    <contour>
      <point x="457" y="849" type="move" name="top"/>
    </contour>
    <contour>
      <point x="457" y="20" type="move" name="bottom"/>
    </contour>
  </outline>
</glyph>
<glyph name="ll-deva" format="1">
  <advance width="1507"/>
  <outline>
    <contour>
      <point x="202" y="932"/>
      <point x="83" y="800"/>
      <point x="83" y="550" type="curve" smooth="yes"/>
      <point x="83" y="307"/>
      <point x="192" y="168"/>
      <point x="388" y="168" type="curve" smooth="yes"/>
      <point x="569" y="168"/>
      <point x="643" y="251"/>
      <point x="807" y="507" type="curve" smooth="yes"/>
      <point x="931" y="717"/>
      <point x="1007" y="817"/>
      <point x="1124" y="817" type="curve" smooth="yes"/>
      <point x="1244" y="817"/>
      <point x="1300" y="727"/>
      <point x="1300" y="565" type="curve" smooth="yes"/>
      <point x="1300" y="378"/>
      <point x="1220" y="281"/>
      <point x="1074" y="281" type="curve" smooth="yes"/>
      <point x="935" y="281"/>
      <point x="859" y="368"/>
      <point x="779" y="491" type="curve"/>
      <point x="715" y="408" type="line"/>
      <point x="801" y="279"/>
      <point x="900" y="170"/>
      <point x="1094" y="170" type="curve" smooth="yes"/>
      <point x="1313" y="170"/>
      <point x="1429" y="304"/>
      <point x="1429" y="563" type="curve" smooth="yes"/>
      <point x="1429" y="818"/>
      <point x="1301" y="932"/>
      <point x="1128" y="932" type="curve" smooth="yes"/>
      <point x="924" y="932"/>
      <point x="842" y="803"/>
      <point x="733" y="622" type="curve" smooth="yes"/>
      <point x="620" y="429"/>
      <point x="533" y="283"/>
      <point x="393" y="283" type="curve" smooth="yes"/>
      <point x="265" y="283"/>
      <point x="213" y="358"/>
      <point x="213" y="547" type="curve" smooth="yes"/>
      <point x="213" y="726"/>
      <point x="289" y="820"/>
      <point x="438" y="820" type="curve" smooth="yes"/>
      <point x="570" y="820"/>
      <point x="660" y="746"/>
      <point x="749" y="602" type="curve"/>
      <point x="809" y="676" type="line"/>
      <point x="693" y="881"/>
      <point x="579" y="932"/>
      <point x="427" y="932" type="curve" smooth="yes"/>
    </contour>
    <contour>
      <point x="-12" y="1247" type="line"/>
      <point x="-12" y="1143" type="line"/>
      <point x="1520" y="1143" type="line"/>
      <point x="1520" y="1247" type="line"/>
    </contour>
    <contour>
      <point x="554" y="849" type="move" name="top"/>
    </contour>
    <contour>
      <point x="554" y="20" type="move" name="bottom"/>
    </contour>
  </outline>
</glyph>
<glyph name="n_na-deva" format="1">
  <advance width="1095"/>
  <outline>
    <contour>
      <point x="168" y="356" type="line"/>
      <point x="219" y="256" type="line"/>
      <point x="432" y="139" type="line"/>
      <point x="516" y="183"/>
      <point x="505" y="246"/>
      <point x="470" y="314" type="curve" smooth="yes"/>
      <point x="392" y="469" type="line"/>
    </contour>
    <contour>
      <point x="285" y="413" type="line"/>
      <point x="336" y="321" type="line"/>
      <point x="833" y="590" type="line"/>
      <point x="785" y="683" type="line"/>
    </contour>
    <contour>
      <point x="755" y="1191" type="line"/>
      <point x="755" y="0" type="line"/>
      <point x="881" y="0" type="line"/>
      <point x="881" y="1191" type="line"/>
    </contour>
    <contour>
      <point x="111" y="940" type="line"/>
      <point x="81" y="831" type="line"/>
      <point x="161" y="603" type="line"/>
      <point x="254" y="578"/>
      <point x="288" y="634"/>
      <point x="306" y="706" type="curve" smooth="yes"/>
      <point x="352" y="875" type="line"/>
    </contour>
    <contour>
      <point x="248" y="902" type="line"/>
      <point x="217" y="799" type="line"/>
      <point x="823" y="648" type="line"/>
      <point x="838" y="759" type="line"/>
    </contour>
    <contour>
      <point x="-33" y="1247" type="line"/>
      <point x="-33" y="1143" type="line"/>
      <point x="1108" y="1143" type="line"/>
      <point x="1108" y="1247" type="line"/>
    </contour>
    <contour>
      <point x="819" y="1168" type="move" name="top"/>
    </contour>
    <contour>
      <point x="817" y="28" type="move" name="bottom"/>
    </contour>
    <contour>
      <point x="543" y="1168" type="move" name="topcandrabindu"/>
    </contour>
  </outline>
</glyph>
<glyph name="ng_ga-deva" format="1">
  <advance width="1214"/>
  <outline>
    <contour>
      <point x="439" y="986" type="line" smooth="yes"/>
      <point x="274" y="986"/>
      <point x="200" y="935"/>
      <point x="200" y="821" type="curve" smooth="yes"/>
      <point x="200" y="722"/>
      <point x="257" y="604"/>
      <point x="321" y="553" type="curve"/>
      <point x="345" y="537"/>
      <point x="358" y="536"/>
      <point x="375" y="538" type="curve" smooth="yes"/>
      <point x="408" y="542"/>
      <point x="580" y="569"/>
      <point x="694" y="569" type="curve" smooth="yes"/>
      <point x="823" y="569"/>
      <point x="873" y="533"/>
      <point x="873" y="454" type="curve" smooth="yes"/>
      <point x="873" y="340"/>
      <point x="778" y="294"/>
      <point x="611" y="294" type="curve" smooth="yes"/>
      <point x="403" y="294"/>
      <point x="290" y="370"/>
      <point x="185" y="476" type="curve"/>
      <point x="121" y="415" type="line"/>
      <point x="259" y="253"/>
      <point x="420" y="198"/>
      <point x="609" y="191" type="curve" smooth="yes"/>
      <point x="803" y="191"/>
      <point x="987" y="255"/>
      <point x="987" y="464" type="curve" smooth="yes"/>
      <point x="987" y="650"/>
      <point x="836" y="679"/>
      <point x="695" y="678" type="curve" smooth="yes"/>
      <point x="578" y="677"/>
      <point x="428" y="658"/>
      <point x="350" y="641" type="curve"/>
      <point x="373" y="629" type="line"/>
      <point x="351" y="650"/>
      <point x="312" y="716"/>
      <point x="312" y="788" type="curve" smooth="yes"/>
      <point x="312" y="856"/>
      <point x="345" y="881"/>
      <point x="465" y="881" type="curve" smooth="yes"/>
      <point x="822" y="881" type="line"/>
      <point x="809" y="986" type="line"/>
    </contour>
    <contour>
      <point x="355" y="0" type="line"/>
      <point x="207" y="-15" type="line"/>
      <point x="207" y="-104" type="line"/>
      <point x="359" y="-274" type="line"/>
      <point x="449" y="-271"/>
      <point x="462" y="-223"/>
      <point x="462" y="-171" type="curve" smooth="yes"/>
      <point x="462" y="0" type="line"/>
    </contour>
    <contour>
      <point x="342" y="281" type="line"/>
      <point x="342" y="-76" type="line"/>
      <point x="461" y="-78" type="line"/>
      <point x="461" y="281" type="line"/>
    </contour>
    <contour>
      <point x="740" y="281" type="line"/>
      <point x="740" y="-481" type="line"/>
      <point x="860" y="-481" type="line"/>
      <point x="860" y="281" type="line"/>
    </contour>
    <contour>
      <point x="-12" y="1247" type="line"/>
      <point x="-12" y="1142" type="line"/>
      <point x="1227" y="1142" type="line"/>
      <point x="1227" y="1247" type="line"/>
    </contour>
    <contour>
      <point x="749" y="1207" type="line"/>
      <point x="749" y="881" type="line"/>
      <point x="875" y="881" type="line"/>
      <point x="875" y="1207" type="line"/>
    </contour>
    <contour>
      <point x="929" y="836"/>
      <point x="905" y="813"/>
      <point x="905" y="758" type="curve" smooth="yes"/>
      <point x="905" y="704"/>
      <point x="929" y="681"/>
      <point x="984" y="681" type="curve" smooth="yes"/>
      <point x="1039" y="681"/>
      <point x="1063" y="704"/>
      <point x="1063" y="758" type="curve" smooth="yes"/>
      <point x="1063" y="813"/>
      <point x="1039" y="836"/>
      <point x="984" y="836" type="curve" smooth="yes"/>
    </contour>
    <contour>
      <point x="812" y="1168" type="move" name="top"/>
    </contour>
    <contour>
      <point x="800" y="-454" type="move" name="bottom"/>
    </contour>
    <contour>
      <point x="604" y="1168" type="move" name="topcandrabindu"/>
    </contour>
  </outline>
</glyph>
<glyph name="ng_ma-deva" format="1">
  <advance width="1214"/>
  <outline>
    <contour>
      <point x="437" y="986" type="line" smooth="yes"/>
      <point x="272" y="986"/>
      <point x="198" y="935"/>
      <point x="198" y="821" type="curve" smooth="yes"/>
      <point x="198" y="722"/>
      <point x="255" y="604"/>
      <point x="319" y="553" type="curve"/>
      <point x="344" y="537"/>
      <point x="357" y="536"/>
      <point x="373" y="538" type="curve" smooth="yes"/>
      <point x="412" y="543"/>
      <point x="578" y="569"/>
      <point x="694" y="569" type="curve" smooth="yes"/>
      <point x="823" y="569"/>
      <point x="871" y="532"/>
      <point x="871" y="452" type="curve" smooth="yes"/>
      <point x="871" y="340"/>
      <point x="774" y="294"/>
      <point x="610" y="294" type="curve" smooth="yes"/>
      <point x="402" y="294"/>
      <point x="289" y="369"/>
      <point x="183" y="476" type="curve"/>
      <point x="119" y="415" type="line"/>
      <point x="250" y="258"/>
      <point x="415" y="198"/>
      <point x="602" y="191" type="curve" smooth="yes"/>
      <point x="803" y="191"/>
      <point x="985" y="255"/>
      <point x="985" y="464" type="curve" smooth="yes"/>
      <point x="985" y="651"/>
      <point x="834" y="678"/>
      <point x="693" y="678" type="curve" smooth="yes"/>
      <point x="577" y="678"/>
      <point x="420" y="658"/>
      <point x="348" y="641" type="curve"/>
      <point x="371" y="629" type="line"/>
      <point x="349" y="650"/>
      <point x="310" y="716"/>
      <point x="310" y="787" type="curve" smooth="yes"/>
      <point x="310" y="856"/>
      <point x="343" y="881"/>
      <point x="463" y="881" type="curve" smooth="yes"/>
      <point x="820" y="881" type="line"/>
      <point x="807" y="986" type="line"/>
    </contour>
    <contour>
      <point x="-12" y="1247" type="line"/>
      <point x="-12" y="1142" type="line"/>
      <point x="1227" y="1142" type="line"/>
      <point x="1227" y="1247" type="line"/>
    </contour>
    <contour>
      <point x="747" y="1207" type="line"/>
      <point x="747" y="881" type="line"/>
      <point x="873" y="881" type="line"/>
      <point x="873" y="1207" type="line"/>
    </contour>
    <contour>
      <point x="786" y="307" type="line"/>
      <point x="786" y="-563" type="line"/>
      <point x="906" y="-563" type="line"/>
      <point x="906" y="307" type="line"/>
    </contour>
    <contour>
      <point x="306" y="-107" type="line"/>
      <point x="162" y="-123" type="line"/>
      <point x="162" y="-211" type="line"/>
      <point x="314" y="-381" type="line"/>
      <point x="405" y="-378"/>
      <point x="417" y="-329"/>
      <point x="417" y="-271" type="curve" smooth="yes"/>
      <point x="417" y="-107" type="line"/>
    </contour>
    <contour>
      <point x="299" y="293" type="line"/>
      <point x="299" y="-253" type="line"/>
      <point x="418" y="-150" type="line"/>
      <point x="418" y="294" type="line"/>
    </contour>
    <contour>
      <point x="302" y="-108" type="line"/>
      <point x="302" y="-217" type="line"/>
      <point x="870" y="-217" type="line"/>
      <point x="870" y="-108" type="line"/>
    </contour>
    <contour>
      <point x="933" y="836"/>
      <point x="909" y="813"/>
      <point x="909" y="758" type="curve" smooth="yes"/>
      <point x="909" y="704"/>
      <point x="933" y="681"/>
      <point x="988" y="681" type="curve" smooth="yes"/>
      <point x="1043" y="681"/>
      <point x="1067" y="704"/>
      <point x="1067" y="758" type="curve" smooth="yes"/>
      <point x="1067" y="813"/>
      <point x="1043" y="836"/>
      <point x="988" y="836" type="curve" smooth="yes"/>
    </contour>
    <contour>
      <point x="810" y="1168" type="move" name="top"/>
    </contour>
    <contour>
      <point x="852" y="-551" type="move" name="bottom"/>
    </contour>
    <contour>
      <point x="604" y="1168" type="move" name="topcandrabindu"/>
    </contour>
  </outline>
</glyph>
<glyph name="nna_ra-deva" format="1">
  <advance width="1486"/>
  <outline>
    <contour>
      <point x="1221" y="467" type="line"/>
      <point x="1175" y="560" type="line"/>
      <point x="484" y="72" type="line"/>
      <point x="560" y="-21" type="line"/>
    </contour>
    <component base="nna-deva" xOffset="-15"/>
    <contour>
      <point x="1213" y="1168" type="move" name="top"/>
    </contour>
    <contour>
      <point x="1215" y="28" type="move" name="bottom"/>
    </contour>
  </outline>
</glyph>
<glyph name="reph_anusvara-deva.imatra" format="1">
  <advance width="584"/>
  <outline>
    <component base="reph_anusvara-deva"/>
    <contour>
      <point x="337" y="1589" type="move" name="top"/>
    </contour>
    <contour>
      <point x="272" y="1168" type="move" name="_top"/>
    </contour>
  </outline>
</glyph>
<glyph name="sh-deva.loclMAR" format="1">
  <advance width="763"/>
  <outline>
    <contour>
      <point x="-20" y="1247" type="line"/>
      <point x="-20" y="1143" type="line"/>
      <point x="783" y="1143" type="line"/>
      <point x="783" y="1247" type="line"/>
    </contour>
    <contour>
      <point x="337" y="1191" type="line"/>
      <point x="337" y="869" type="line"/>
      <point x="463" y="869" type="line"/>
      <point x="463" y="1191" type="line"/>
    </contour>
    <contour>
      <point x="172" y="916"/>
      <point x="75" y="808"/>
      <point x="79" y="684" type="curve" smooth="yes"/>
      <point x="82" y="597"/>
      <point x="129" y="516"/>
      <point x="252" y="450" type="curve"/>
      <point x="308" y="526" type="line"/>
      <point x="223" y="582"/>
      <point x="196" y="623"/>
      <point x="196" y="677" type="curve" smooth="yes"/>
      <point x="196" y="762"/>
      <point x="261" y="811"/>
      <point x="375" y="811" type="curve" smooth="yes"/>
      <point x="530" y="811"/>
      <point x="576" y="710"/>
      <point x="576" y="606" type="curve" smooth="yes"/>
      <point x="576" y="404"/>
      <point x="425" y="282"/>
      <point x="171" y="177" type="curve"/>
      <point x="261" y="107" type="line"/>
      <point x="522" y="211"/>
      <point x="702" y="366"/>
      <point x="702" y="611" type="curve" smooth="yes"/>
      <point x="702" y="763"/>
      <point x="611" y="916"/>
      <point x="372" y="916" type="curve" smooth="yes"/>
    </contour>
    <contour>
      <point x="101" y="330" type="line"/>
      <point x="68" y="272"/>
      <point x="59" y="222"/>
      <point x="58" y="192" type="curve" smooth="yes"/>
      <point x="57" y="122"/>
      <point x="110" y="86"/>
      <point x="166" y="86" type="curve" smooth="yes"/>
      <point x="206" y="86"/>
      <point x="253" y="97"/>
      <point x="333" y="136" type="curve"/>
      <point x="323" y="162" type="line"/>
      <point x="184" y="330" type="line"/>
    </contour>
    <contour>
      <point x="195" y="169" type="line"/>
      <point x="626" y="-356" type="line"/>
      <point x="722" y="-276" type="line"/>
      <point x="280" y="207" type="line"/>
    </contour>
    <contour>
      <point x="265" y="849" type="move" name="top"/>
    </contour>
    <contour>
      <point x="265" y="20" type="move" name="bottom"/>
    </contour>
  </outline>
</glyph>
<glyph name="sha_matra_vocalicR-deva" format="1">
  <advance width="1272"/>
  <outline>
    <contour>
      <point x="248" y="1283"/>
      <point x="132" y="1184"/>
      <point x="132" y="1029" type="curve" smooth="yes"/>
      <point x="132" y="925"/>
      <point x="182" y="819"/>
      <point x="353" y="718" type="curve"/>
      <point x="459" y="771" type="line"/>
      <point x="288" y="859"/>
      <point x="254" y="953"/>
      <point x="254" y="1018" type="curve" smooth="yes"/>
      <point x="254" y="1119"/>
      <point x="320" y="1180"/>
      <point x="437" y="1180" type="curve" smooth="yes"/>
      <point x="539" y="1180"/>
      <point x="614" y="1129"/>
      <point x="614" y="1027" type="curve" smooth="yes"/>
      <point x="614" y="917"/>
      <point x="528" y="842"/>
      <point x="395" y="767" type="curve" smooth="yes"/>
      <point x="45" y="572" type="line"/>
      <point x="103" y="475" type="line"/>
      <point x="495" y="700" type="line" smooth="yes"/>
      <point x="658" y="795"/>
      <point x="739" y="903"/>
      <point x="739" y="1030" type="curve" smooth="yes"/>
      <point x="739" y="1193"/>
      <point x="621" y="1283"/>
      <point x="438" y="1283" type="curve" smooth="yes"/>
    </contour>
    <contour>
      <point x="393" y="689" type="line"/>
      <point x="515" y="619"/>
      <point x="632" y="579"/>
      <point x="751" y="562" type="curve" smooth="yes"/>
      <point x="835" y="547"/>
      <point x="918" y="542"/>
      <point x="1014" y="545" type="curve"/>
      <point x="1016" y="655" type="line"/>
      <point x="935" y="650"/>
      <point x="852" y="652"/>
      <point x="768" y="665" type="curve" smooth="yes"/>
      <point x="670" y="680"/>
      <point x="572" y="708"/>
      <point x="482" y="756" type="curve"/>
    </contour>
    <contour>
      <point x="940" y="1193" type="line"/>
      <point x="940" y="0" type="line"/>
      <point x="1066" y="0" type="line"/>
      <point x="1066" y="1193" type="line"/>
    </contour>
    <contour>
      <point x="815" y="1247" type="line"/>
      <point x="815" y="1143" type="line"/>
      <point x="1293" y="1143" type="line"/>
      <point x="1293" y="1247" type="line"/>
    </contour>
    <component base="rVocalicMatra-deva" xOffset="735" yOffset="-1"/>
    <contour>
      <point x="995" y="1168" type="move" name="top"/>
    </contour>
    <contour>
      <point x="995" y="28" type="move" name="bottom"/>
    </contour>
    <contour>
      <point x="761" y="1168" type="move" name="topcandrabindu"/>
    </contour>
  </outline>
</glyph>
<glyph name="t_r-deva" format="1">
  <advance width="575"/>
  <outline>
    <contour>
      <point x="-12" y="1247" type="line"/>
      <point x="-12" y="1143" type="line"/>
      <point x="611" y="1143" type="line"/>
      <point x="611" y="1247" type="line"/>
    </contour>
    <contour>
      <point x="766" y="603" type="line"/>
      <point x="530" y="898"/>
      <point x="421" y="958"/>
      <point x="297" y="958" type="curve" smooth="yes"/>
      <point x="183" y="958"/>
      <point x="105" y="908"/>
      <point x="42" y="856" type="curve"/>
      <point x="108" y="755" type="line"/>
      <point x="171" y="803"/>
      <point x="242" y="844"/>
      <point x="302" y="843" type="curve" smooth="yes"/>
      <point x="425" y="842"/>
      <point x="517" y="748"/>
      <point x="697" y="547" type="curve"/>
      <point x="701" y="609" type="line"/>
      <point x="141" y="203" type="line"/>
      <point x="219" y="109" type="line"/>
      <point x="764" y="533" type="line"/>
    </contour>
    <contour>
      <point x="220" y="849" type="move" name="top"/>
    </contour>
    <contour>
      <point x="220" y="20" type="move" name="bottom"/>
    </contour>
  </outline>
</glyph>
<glyph name="tt-deva" format="1">
  <advance width="1017"/>
  <outline>
    <component base="tta-deva"/>
    <component base="halant-deva" xOffset="476" yOffset="59"/>
    <contour>
      <point x="370" y="849" type="move" name="top"/>
    </contour>
    <contour>
      <point x="370" y="20" type="move" name="bottom"/>
    </contour>
  </outline>
</glyph>
<glyph name="tth-deva" format="1">
  <advance width="1171"/>
  <outline>
    <component base="ttha-deva"/>
    <component base="halant-deva" xOffset="492" yOffset="59"/>
    <contour>
      <point x="425" y="849" type="move" name="top"/>
    </contour>
    <contour>
      <point x="425" y="20" type="move" name="bottom"/>
    </contour>
  </outline>
</glyph>
